<?xml version="1.0" standalone="no"?>
<!DOCTYPE svg PUBLIC "-//W3C//DTD SVG 20010904//EN"
 "http://www.w3.org/TR/2001/REC-SVG-20010904/DTD/svg10.dtd">
<svg version="1.0" xmlns="http://www.w3.org/2000/svg"
 width="356.000000pt" height="356.000000pt" viewBox="0 0 356.000000 356.000000"
 preserveAspectRatio="xMidYMid meet">
<metadata>
Created by potrace 1.14, written by Peter Selinger 2001-2017
</metadata>
<g transform="translate(0.000000,356.000000) scale(0.100000,-0.100000)"
fill="#000000" stroke="none">
<path d="M745 3550 c-3 -5 -13 -10 -21 -10 -9 0 -35 -13 -59 -30 -24 -16 -46
-30 -49 -30 -2 0 -42 -23 -88 -52 -46 -28 -113 -68 -149 -90 -36 -21 -78 -49
-92 -62 l-26 -24 0 -1593 c0 -877 2 -1602 5 -1611 3 -10 14 -18 24 -18 10 0
20 -5 22 -10 2 -7 138 -11 410 -11 396 0 407 1 445 22 21 11 45 27 54 35 8 8
21 14 27 14 7 0 12 5 12 10 0 6 7 10 15 10 8 0 15 5 15 10 0 6 4 10 10 10 9 0
72 39 97 60 7 5 17 10 23 10 5 0 10 3 10 8 0 4 16 16 35 26 19 11 35 23 35 28
0 4 7 8 16 8 9 0 26 11 38 25 l22 26 1 1601 c1 1419 -1 1604 -14 1625 l-15 23
-399 0 c-254 0 -400 -4 -404 -10z"/>
<path d="M2581 3543 l-95 -4 -85 -63 c-47 -34 -117 -84 -156 -111 -38 -27 -91
-66 -117 -88 l-48 -39 0 -1582 c0 -1217 3 -1585 12 -1594 9 -9 112 -12 403
-12 l391 0 52 33 c29 17 106 69 173 114 66 46 122 83 124 83 2 0 16 11 30 25
l25 26 0 1594 0 1594 -32 15 c-26 14 -73 16 -307 14 -152 -1 -318 -4 -370 -5z"/>
</g>
</svg>
